# xmcd
# Track frame offsets:
# 150
# 17863
# 36066
# 54667
# 72774
# 92415
# 107873
# 127238
# 145026
#
# Disc length: 2153 seconds
# Revision: 0
# Processed by: cddbd v1.5.1PL0 Copyright (c) Steve Scherf et al.
# Submitted via: VisiTrax 2.9.10.228 - For more info visit www.synapsa.com
#
DISCID=7a086709
DTITLE=Various Artist - Hits Monthly Nashville  PHN0312
DYEAR=1900
DGENRE=Karaoke
TTITLE0=Evans, Sara - Perfect
TTITLE1=Trevino, Rick - In My Dreams
TTITLE2=Tyler, Ryan - Run, Run, Run
TTITLE3=Wynonna - Heaven Help Me
TTITLE4=Atkins, Rodney - Honesty (Write Me A List)
TTITLE5=Rushlow - I Can't Be Your Friend
TTITLE6=Turner, Josh - Long Black Train
TTITLE7=Paisley, Brad - Little Moments
TTITLE8=Bates, Jeff - Rainbow Man
EXTD=
EXTT0=
EXTT1=
EXTT2=
EXTT3=
EXTT4=
EXTT5=
EXTT6=
EXTT7=
EXTT8=
PLAYORDER=
